<svg width="256" height="256" viewBox="0 0 256 256" fill="none" xmlns="http://www.w3.org/2000/svg">
<g clip-path="url(#clip0_2_9)">
<path d="M51.48 128C51.48 116.413 53.46 105.853 57.42 96.32C61.38 86.64 66.88 78.3533 73.92 71.46C80.96 64.42 89.1733 58.9933 98.56 55.18C108.093 51.3667 118.36 49.46 129.36 49.46C145.2 49.46 159.207 53.2733 171.38 60.9C183.7 68.38 192.94 79.16 199.1 93.24L174.24 100.5C171.013 94.34 166.98 89.3533 162.14 85.54C157.447 81.7267 152.313 78.94 146.74 77.18C141.167 75.42 135.52 74.54 129.8 74.54C120.413 74.54 112.053 76.8133 104.72 81.36C97.3867 85.76 91.6667 91.9933 87.56 100.06C83.6 108.127 81.62 117.44 81.62 128C81.62 138.56 83.6 147.873 87.56 155.94C91.6667 163.86 97.3867 170.093 104.72 174.64C112.053 179.187 120.413 181.46 129.8 181.46C135.667 181.46 141.46 180.58 147.18 178.82C153.047 176.913 158.473 173.76 163.46 169.36C168.447 164.96 172.7 159.093 176.22 151.76L200.64 158.58C194.333 174.567 184.947 186.593 172.48 194.66C160.013 202.58 145.64 206.54 129.36 206.54C118.36 206.54 108.093 204.633 98.56 200.82C89.1733 197.007 80.96 191.58 73.92 184.54C66.88 177.5 61.38 169.213 57.42 159.68C53.46 150 51.48 139.44 51.48 128Z" fill="#FFA500"/>
<rect x="115" y="25" width="25" height="206" fill="#FFA500"/>
</g>
<defs>
<clipPath id="clip0_2_9">
<rect width="256" height="256" fill="white"/>
</clipPath>
</defs>
</svg>
