<svg width="256" height="256" viewBox="0 0 256 256" fill="none" xmlns="http://www.w3.org/2000/svg">
<path d="M10.1 65H37.82L70.22 109.28L102.08 65H129.62L84.44 128L129.62 191H102.08L70.22 146.72L37.82 191H10.1L56 128L10.1 65ZM201.063 122.6C205.863 122.6 209.823 121.88 212.943 120.44C216.063 118.88 218.343 116.72 219.783 113.96C221.343 111.08 222.123 107.72 222.123 103.88C222.123 98 220.383 93.44 216.903 90.2C213.543 86.96 208.263 85.34 201.063 85.34H174.243V122.6H201.063ZM246.963 103.88C246.963 108.56 246.123 113.24 244.443 117.92C242.763 122.48 240.123 126.68 236.523 130.52C232.923 134.24 228.243 137.24 222.483 139.52C216.843 141.8 209.943 142.94 201.783 142.94H174.243V191H149.943V65H201.783C211.983 65 220.383 66.8 226.983 70.4C233.703 73.88 238.683 78.62 241.923 84.62C245.283 90.5 246.963 96.92 246.963 103.88Z" fill="#00DD00"/>
</svg>
